<?xml version="1.0" encoding="utf-8"?>
<!-- Generator: Adobe Illustrator 24.0.0, SVG Export Plug-In . SVG Version: 6.00 Build 0)  -->
<svg version="1.1"
	 id="svg2" xmlns:cc="http://creativecommons.org/ns#" xmlns:dc="http://purl.org/dc/elements/1.1/" xmlns:rdf="http://www.w3.org/1999/02/22-rdf-syntax-ns#" xmlns:svg="http://www.w3.org/2000/svg"
	 xmlns="http://www.w3.org/2000/svg" xmlns:xlink="http://www.w3.org/1999/xlink" x="0px" y="0px" viewBox="0 0 320 404"
	 style="enable-background:new 0 0 320 404;" xml:space="preserve">
<style type="text/css">
	.st0{fill-rule:evenodd;clip-rule:evenodd;fill:#9000CC;}
	.st1{fill-rule:evenodd;clip-rule:evenodd;fill:#FF0000;}
	.st2{fill-rule:evenodd;clip-rule:evenodd;fill:#F2F2F2;}
	.st3{fill-rule:evenodd;clip-rule:evenodd;fill:#00AA00;}
	.st4{fill:none;stroke:#7F7F7F;stroke-width:0.2471;}
	.st5{fill:none;stroke:#7F7F7F;stroke-width:0.3951;}
	.st6{fill:none;stroke:#000000;stroke-width:0.5644;}
	.st7{fill:#AA8800;}
	.st8{fill:#FFCC00;}
	.st9{fill-rule:evenodd;clip-rule:evenodd;fill:#FFFF00;}
	.st10{fill:#FFE600;}
</style>
<g id="g3981" transform="matrix(0.08063493,0,0,0.08063493,5.6444447,82.973335)">
	<path id="rect3023" class="st0" d="M178,2687.9v354.3h212.6v-70.9H248.9v-283.5H178z"/>
	<path id="rect3004" class="st0" d="M461.5,2687.9v354.3h212.6v-70.9H532.4v-70.9h141.7v-70.9H532.4v-70.9h141.7v-70.9H461.5z"/>
	<path id="path3029" class="st0" d="M922.1,2758.8v70.9H993c19.6,0,35.4,15.9,35.4,35.4c0,19.6-15.9,35.4-35.4,35.4h-70.9v70.9H993
		c58.7,0,106.3-47.6,106.3-106.3s-47.6-106.3-106.3-106.3H922.1z M993,2617.1c-137,0-248,111-248,248c0,137,111,248,248,248
		s248-111,248-248C1241,2728.1,1130,2617.1,993,2617.1z M993,2687.9c97.8,0,177.2,79.3,177.2,177.2c0,97.8-79.3,177.2-177.2,177.2
		s-177.2-79.3-177.2-177.2C815.8,2767.2,895.1,2687.9,993,2687.9z"/>
	<path id="rect3051" class="st1" d="M1311.9,2687.9v354.3h70.9v-222.5l141.7,222.5h70.9v-354.3h-70.9v222.5l-141.7-222.5H1311.9z"/>
	<rect id="rect3002" x="1666.2" y="2687.9" class="st0" width="70.9" height="354.3"/>
	<path id="path3053" class="st0" d="M1808,2687.9v354.3h177.2c58.7,0,106.3-47.6,106.3-106.3v-141.7c0-58.7-47.6-106.3-106.3-106.3
		H1808z M1878.8,2758.8h106.3c19.6,0,35.4,15.9,35.4,35.4V2936c0,19.6-15.9,35.4-35.4,35.4h-106.3V2758.8z"/>
	<path id="path3071" class="st0" d="M2516.6,2687.9l-70.9,70.9H2552c19.6,0,35.4,15.9,35.4,35.4c0,19.6-15.9,35.4-35.4,35.4
		c-58.7,0-106.3,47.6-106.3,106.3v106.3h212.6v-70.9h-141.7V2936c0-19.6,15.9-35.4,35.4-35.4c58.7,0,106.3-47.6,106.3-106.3
		c0-58.7-47.6-106.3-106.3-106.3H2516.6z"/>
	<path id="path3041" class="st0" d="M2977.2,2617.1c-137,0-248,111-248,248c0,137,111,248,248,248c137,0,248-111,248-248
		C3225.3,2728.1,3114.2,2617.1,2977.2,2617.1z M2977.2,2687.9c97.8,0,177.2,79.3,177.2,177.2c0,97.8-79.3,177.2-177.2,177.2
		c-97.8,0-177.2-79.3-177.2-177.2C2800.1,2767.2,2879.4,2687.9,2977.2,2687.9z"/>
	<path id="rect3068" class="st0" d="M3296.1,2758.8v283.5h70.9v-354.3L3296.1,2758.8z"/>
	<path id="path3043" class="st0" d="M3437.9,2687.9v212.6h106.3c19.6,0,35.4,15.9,35.4,35.4c0,19.6-15.9,35.4-35.4,35.4h-106.3
		l70.9,70.9h35.4c58.7,0,106.3-47.6,106.3-106.3s-47.6-106.3-106.3-106.3h-35.4v-70.9h141.7v-70.9H3437.9z"/>
</g>
<polygon id="polygon10" class="st2" points="319,1 1,1 1,261.7 319,261.7 "/>
<path id="path12" class="st3" d="M190.1,371.7h98.9c16.6,0,30.1-14,30.1-31.3v-78.7H1v78.7c0,17.3,13.5,31.3,30.1,31.3h98.9
	c16.6,0,30.1,14,30.1,31.3C160,385.7,173.5,371.7,190.1,371.7L190.1,371.7z"/>
<path id="polyline14" class="st4" d="M1,51.7h23v21h24.7v-21h24.7v21h24.7v-21h24.7v21h24.7v-21h24.7v21h24.7v-21h24.7v21h24.7v-21
	h24.7v21H296v-21h23"/>
<path id="path20" class="st5" d="M1,261.7h318 M1,240.7h318 M1,219.7h318 M1,198.7h318 M1,177.7h318 M1,156.7h318 M1,135.7h318
	 M1,114.7h318 M1,93.7h318"/>
<path id="path22" class="st6" d="M190.1,371.7h98.9c16.6,0,30.1-14,30.1-31.3V1H1v339.4c0,17.3,13.5,31.3,30.1,31.3h98.9
	c16.6,0,30.1,14,30.1,31.3C160,385.7,173.5,371.7,190.1,371.7L190.1,371.7z"/>
<path id="path3154" class="st5" d="M85.8,135.7v-21 M85.8,177.7v-21 M85.8,219.7v-21 M85.8,261.7v-21 M135.3,135.7v-21 M135.3,177.7
	v-21 M135.3,219.7v-21 M135.3,261.7v-21 M184.7,135.7v-21 M184.7,177.7v-21 M184.7,219.7v-21 M184.7,261.7v-21 M234.2,135.7v-21
	 M234.2,177.7v-21 M234.2,219.7v-21 M234.2,261.7v-21 M283.6,135.7v-21 M283.6,177.7v-21 M283.6,219.7v-21 M283.6,261.7v-21
	 M36.4,135.7v-21 M36.4,177.7v-21 M36.4,219.7v-21 M36.4,261.7v-21"/>
<path id="path3158" class="st5" d="M308.3,114.7v-21 M308.3,156.7v-21 M308.3,198.7v-21 M308.3,240.7v-21 M61.1,114.7v-21
	 M61.1,156.7v-21 M61.1,198.7v-21 M61.1,240.7v-21 M110.6,114.7v-21 M110.6,156.7v-21 M110.6,198.7v-21 M110.6,240.7v-21 M160,114.7
	v-21 M160,156.7v-21 M160,198.7v-21 M160,240.7v-21 M209.4,114.7v-21 M209.4,156.7v-21 M209.4,198.7v-21 M209.4,240.7v-21
	 M258.9,114.7v-21 M258.9,156.7v-21 M258.9,198.7v-21 M258.9,240.7v-21 M11.7,114.7v-21 M11.7,156.7v-21 M11.7,198.7v-21
	 M11.7,240.7v-21"/>
<g id="g3140" transform="translate(129.82221,0)">
	<path id="_153070240" class="st7" d="M-75,124.1c-0.2,0-0.4,0-0.6-0.1c-3.1-0.4-6.7-1.4-9.8-1.3c-3.2,0.1-5.9,1.7-8.2,3.7
		c-1.3-2.2-2.8-4.3-4.7-6c-4.5-1.2-5.6-5.4-3.5-9.3c0.8-1.6,2.2-3.1,3.9-4.3c-0.2-2,0.5-3.4,2-4.6c3.6-2.9,8.7-3.3,13-4.6l0,0l0,0v0
		c0.8-0.2,1-0.3,1.3-0.4l0,0c2.4-0.7,4.8-1.5,6.9-2.5h0v0c1-0.5,2-1,3-1.4l-1.8-1.7c2.1-1.4,4.4-2.6,6.9-3.2l-2-2.7
		c2.3-0.2,4.6-0.4,6.9-0.3l-1.5-1.6c6.3,0,12.7,1.1,18,5c2.1-1.6,4.4-2.6,6.7-2.7l0.1,0.6v0c0.5,2.8,0.3,5.4-0.5,7.8
		c1.7,2.1,3,4.4,3.1,7.1c4.2,5.9,5.5,12.9,6.2,20.5c0.6,6.2,0,12.4,0.8,18.6c-0.7-0.4-1.4-0.8-1.9-1.4c0.5,3.9,0.5,7.8,1.1,11.7
		c-1-1.1-2.1-2.2-3.1-3.3c0.5,4.6,0.9,9.2,2.1,13.6c1,3.8,4.4,11.9,9.9,9.8c3.9-1.5,5.6-9.9,6.5-13.6l-1.3,0.5
		c1-2.7,2.3-5.2,3.7-7.7l-1.4,0.1c2.9-2.7,4.6-6.2,7.4-9l-0.8,0.1c1.8-2.8,3.8-5.5,6.2-7.1c-0.2-0.5-0.4-1-0.5-1.6
		c-0.5-3.3,1.3-7.1,3.6-9.4l0,0l0,0h0c0.4-0.4,0.8-0.7,1.2-1.1c2.5-1.9,6-3.3,9.2-2.6c-1.4-3.2,0.3-7.2,2.8-9.4c2-1.7,4.7-3,7.4-2.6
		c-0.9-2.1-0.8-4.9,0-7.1h0l0,0v0c0.1-0.3,0.3-0.7,0.5-1c1.1-2.1,3-3.9,5.4-4.2C28.4,93,29,90.1,30.5,88c2.6-3.9,7.6-4.4,11.6-2.6
		c3,1.3,5.3,3.5,8.4,4.3c0.2-0.7,1.1-1,1.8-1c0.9-0.1,2.9,0.1,3.7,0.8c3.3-1.1,6.1-3.3,9.5-4.3c3.5-1,7.9-0.3,9.9,3.1v0l0,0
		c1.2,2,1.7,4.9,0.3,7c0,0,0,0,0.1,0c2.9,0.1,5.9,1.9,7.1,4.6l0,0c0.1,0.3,0.3,0.7,0.4,1.1c0.5,2,0.4,4.3-0.7,6.1
		c3.8-0.5,7.6,1.5,9.3,4.9c1.1,2.1,1.2,4.5,0.2,6.7c3.7-0.7,6.8,0.2,9.5,2.5c3.7,3.1,5.5,7.9,3.1,12.1c9.1,4,14,13.1,18.9,21.2v0
		l0,0c1,1.6,2,3.1,3,4.7c1.6,2.4,3,4.8,4.4,7.4c11.2-2.4,18.1,8.3,20,17.7c1.1,5.3,1.9,10.9,1.2,16.3l0,0
		c-0.7,5.6-1.9,11.1-2.1,16.7c-0.3,7.2,0.6,13.5,3,20.3c0.3,0.8,0.8,3.9-1,3.1l0,0l0,0l0,0c-0.3-0.1-0.4-0.3-0.7-0.6
		c-2.2-2.4-3.7-6.5-4.8-9.6c-3-1.9-3.2-5.6-3.7-8.9c-3.1-2.3-2.6-8.9-2.7-12.3c-0.2-8.2,2.3-15.8,2.6-24c0.2-5.5-3.1-13.6-9.5-14.1
		c2.6,6,4.3,12.5,4.4,19.1c0.2,6.7-0.8,13-2.9,19.4c-0.5-0.5-0.9-0.9-1.3-1.4c-3,9.4-5,20.1-4,29.9c0.6,6.3,3.3,11.7,7.2,16.6
		c-2.3,5.9-3.6,12.1-4.6,18.3l0,0c-0.2,1-0.3,2-0.5,3c-2,11.8-3.8,23.7-3.7,35.7c-5.9,2.7-8.6,7.7-10.1,13.8l-24.7,0
		c-0.4-7,4.9-10,10.8-11.1c4.1-0.8,9.2-2.4,8-7.6c3.6-5.9,5.7-12.4,7.2-19.2c1.3-5.8,2.2-11.7,1.3-17.6c-0.7-4.4-2.4-8-4.3-11.9
		c-0.4-0.7-0.7-1.5-1.1-2.3l0,0c-2.3-5.1-4.3-10.4-5.9-15.8c-1.4-0.6-2.6-1.6-3.6-2.7c-0.1-0.1-0.3-0.3-0.4-0.4
		c-0.3,6.9-0.5,19.1,4.7,23.2c-7.5,16.1-13.6,33-16.4,50.6c-6.3,2.9-9.7,7.6-10.8,14.4H57.7c-1.2-5.8,2.3-8.4,7.5-9.5
		c4.4-0.9,8.7-4,8.4-9c11.1-9.8,20.6-27.3,17.3-42.7c-1.7-8-4.8-15.7-7.8-23.3c-1-2.4-2-4.9-2.9-7.5v0c-2.5-6.9-3.9-12.8-3.3-20.1
		c-1.4,0.6-2.8,1.3-4.1,2.1c-6.6,3.8-12.3,8.2-20.2,9.7c-5.7,1.1-12.2,0.9-21-0.5c0.8,10.6,0.6,21.1,0.7,31.9c0,2,0,4,0.1,6
		c0.1,2,0.2,4,0.3,6c0.5,8.4-0.3,16.7-1.1,25c-0.6,6.3-0.2,12.5,1.4,18.6c-4.8,3.2-7.7,7.3-8.8,12.9l-23.9,0.1
		c-0.2-6.3,3.2-9.1,9.1-9.1c3.8,0,4.3-2.5,3.4-5.6c7.2-5.4,8.1-15.3,8.8-23.7c0.6-7.3,1.5-16.4-4.5-21.7c0.3-7.7-1.4-14.8-5-21.4
		c-0.8,9.8-3.1,19.2-5,28.8C4.6,284.5,3,297,4.6,309.4c-5.4,3.8-7.7,8.9-8.6,15.3l-25.7,0c0.2-6.4,3.6-8.9,9.5-9.9
		c5.2-0.9,8.4-3,8.5-8.8c4-6.2,6.6-12.6,7.4-20c0.9-7.3,0.6-14.1-3-20.7c0.9-6.3,0.3-12.6-0.8-18.8c-1.7-8.8-3.7-18.4-8.5-26.1
		c-2.7-0.8-5.4-1.5-8.1-1.9c1,1.6,1.8,3.3,2.2,5c-4.6-2.3-9.7-3.7-13.9-6.5c0.3,1,0.7,2.7,1,4.3c-4.4-3.2-9.6-5.6-13.6-9.4
		c0,1.5-0.5,2.5-1.1,3.8c-3.3-6.6-9.6-11.3-12-18.4l-0.9,2.4c-2.9-6.4-4.9-12.9-5.7-19.8l-1.6,2.4c-1.4-8.4-1.8-16.8-0.4-25.3
		l-2.1,1.6c1.6-8.7,3-17.8,2.5-26.7C-70.6,128.3-72,125.5-75,124.1L-75,124.1z"/>
	<path id="_153069952" class="st8" d="M132.8,169.9c7.6,0,11.8,9.1,11.5,15.5c-0.3,8.1-2.8,15.8-2.6,23.9c0.1,3-0.5,9.7,2.6,11.5
		c0.5,3.3,0.5,6.9,3.5,8.8c1,2.9,2.3,5.7,3.8,8.4c0.2,0.5,0.7,1.1,0.3,0c-2.4-7-3.4-13.4-3.1-20.8c0.2-5.7,1.4-11.2,2.1-16.8l0,0
		c0.7-5.3-0.1-10.7-1.2-15.9c-1.7-8.5-7.8-18.6-18-16.7C132.2,168.5,132.5,169.2,132.8,169.9L132.8,169.9z M104.2,134.5
		c0,0-0.1,0.1-0.1,0.1c-1.2,1.5-2.8,2.6-4.6,3.6l0,0c-11.5,6-25.5,7.1-38.2,8.4c0.1,5.2,0.1,10.5,0,15.7
		c-0.1,11.9-0.4,23.8-1.5,35.7v0c-0.7,8.2-2,16.3-3.1,24.5c5.5-2,10.1-5.4,15.3-8.3c6.8-3.9,14.8-6.5,22.7-4.8
		c-0.9-5.3-1.5-10.7-2.4-16.1c-1.2-7-3.2-14.5-7.3-20.4c5.8,4.5,7.4,13.2,8.6,20.1c1.7,9.7,2.4,19.4,5.2,28.9
		c1.5,5.1,4.1,10.6,7.7,14.6c1.1,1.2,2.3,2,3.7,2.6c1.6,5.6,3.6,11,6,16.3l0,0c0.4,0.8,0.7,1.5,1.1,2.3c1.9,4,3.7,7.7,4.4,12.3
		c1,6.1,0,12.2-1.3,18.1c-1.5,6.7-3.5,13.2-7.1,19.1c1,5.2-3.6,7.5-7.8,8.5c-3.5,1.9-5,4.8-4.6,8.7l15.8,0
		c1.5-5.6,4.4-10.7,9.8-13.3c0-11.7,1.8-23.5,3.8-35.1c0.2-1,0.3-2,0.5-3v0c1-6,2.2-12.1,4.4-17.8c-3.9-4.9-6.4-10.4-7-16.7
		c-1-10.4,1.2-21.7,4.4-31.5c-1-1.8-1.6-4.5-1-6.8c0.5,3.3,1.3,5.5,2.7,7c1.7-5.5,2.3-11,2.1-16.7c-0.3-11-4.8-21.4-10.8-30.5
		c-1-1.6-2.1-3.1-3-4.7v0l0,0C117.9,147.3,113.1,138.3,104.2,134.5L104.2,134.5z M50.8,223.9c3.6-19.5,3.9-39.1,4.4-58.9
		c0.2-5.9,0.2-11.9,0.1-17.9c-8.5,0.7-17.2,0.3-25.7-0.6c-9-1-18-3-25.6-7.6c-1.4-0.9-2.9-1.9-3.9-3.2c-1.6,1.2-3.4,3.4-4.9,5.5
		c0.8-0.3,1.7-0.3,2.5-0.4c-3,1.2-4.1,2.9-5.9,5.3c0.7-0.2,1.5-0.3,2.2-0.3c-2.2,1.4-3.4,2.7-4.9,5.2c0.6-0.2,1.2-0.3,1.7-0.4
		c-2,1.7-3.2,2.8-4.3,5.2l0.7-0.3c-0.2,0.8-0.3,1.3-0.5,2.1c0.6-0.4,1.3-0.6,1.9-0.8c-1.1,1.4-2.1,2.4-2.5,4.2
		c0.8-0.6,1.6-1,2.4-1.2c-1.6,1.7-2.7,2.7-3.4,4.9c0.4-0.2,1.2-0.7,1.6-0.8c-1.5,1.5-2.3,3.1-3.2,4.8c0.3-0.1,1-0.4,1.3-0.4
		c-1.2,0.8-2.3,2-3.2,3c-0.6,0.6-1.3,1-2,1.3c-6.4,2.5-10.4-6-11.7-10.7c-1.8-6.5-2.1-13.4-2.8-20.1c1,1.9,1.8,3.8,3.3,5.4
		c-0.4-4.9-0.9-9.4-2-14.2c1,1.6,1.9,3.4,3.1,4.8c-0.4-5.1,0-10.3-0.4-15.4c-0.8-9.3-2.6-17.6-9.7-24.1c-1.2,1.8-2.9,3.5-5,4.8
		l-1.7,0c5.1-3,8.6-8.9,7.7-15.3c-5,1.2-9.2,5.5-11,10.8l-0.6-0.1v0l0,0c0.3-1.9,1.1-3.8,2.2-5.4c-2.7-1-5.6-1.4-8.5-1.3h0
		c-6.1,0.1-11.3,1.6-16.7,4.4h0l0,0c-2.1,1.1-4.6,1.8-7.1,2.6v0c-0.6,0.2-1.2,0.4-1.3,0.4l0,0h0l0,0c-4.1,1.3-9.1,1.6-12.6,4.4
		c-1.1,0.9-1.6,1.7-1.5,3.1c0.6-0.3,1.2-0.7,1.8-1c0.9-0.5,2-1.1,3.1-0.8c0.9,0.2,1,1.3-0.3,1.7c-3.7,1.1-6.7,1.8-8.7,5.5
		c-1.7,3.2-0.8,6.3,2.7,7.4c4-0.6,7.5-3.8,10.1-4.8l1.1,2.6c-3.8,0.5-7.1,1.7-9.9,3.2c1.3,1.3,2.4,2.7,3.4,4.3c2.2-1.7,5-3,7.8-3
		c3.2-0.1,6.7,0.9,9.9,1.3c3.2,0.4,6.2,0.7,9.3,0.6c3.9-0.1,7.8-0.7,12.3-2.1l-2.2-1.6l1.7-0.2h0c1.6-0.2,3.3-0.6,4.8-1.2
		c-0.7-0.2-1.4-0.4-2-0.6l1.3-0.8l0,0c4.6-2.8,7.7-7.8,8.7-13.1c0,5.5-2.2,10.1-6.6,13.4c1,0.1,1.9,0.2,2.9,0.3
		c-2.3,1.4-4.6,2.6-7.3,3.1l1.5,1.1c-4.9,1.7-9.8,2.9-15.1,3c-2,0-3.9,0-5.8-0.2c2,1.8,2.9,4.5,3.1,7.3c0.5,8-0.6,15.9-2,23.8
		l2.2-1.5c-1.6,8.3-2,16.4-0.7,24.7l1.8-2.6c0.6,7,1.9,13.6,4.7,20.1l1.2-3.2c1.9,9.4,7.3,12.7,11.5,19.5c0.1-1.6-0.4-3.3-0.7-4.8
		c3.9,4.6,8.8,7.4,13.7,10.7c-0.6-1.6-1.1-3.3-1.6-4.9c4.3,3.5,9,5.3,14,7.4c-1-2.2-1.8-3.2-3.4-5c3.7,1.1,7.5,1.8,11.3,2.9
		c10.1,2.9,19.2,7.6,25.5,16.2c-2.8-10.3-4.8-26.3,3.3-35.4c-6.1,9.3-5.2,25.8-1.7,36.2c0.7,1.9,1.5,3.6,2.4,5.3v0
		c4.3,7.1,6.4,14.9,6.1,23.2c6,5.6,5.1,15.1,4.5,22.4c-0.7,8.2-1.7,18.5-8.7,24.1c0.9,3.9-0.9,6.4-5,6.4c-4.4,0-7.5,2.1-7.7,6.4
		l4.2,0c0.9-3,2.9-4.7,6-5.6c-2.1,1.6-3.4,3.1-4.3,5.6l15.6-0.1c1.2-5.1,4.2-9.2,8.4-12.2c-1.5-5.9-1.8-12.1-1.2-18.1
		c0.8-8.3,1.7-16.5,1.1-24.8c-0.1-2-0.2-4-0.3-6c-0.1-2-0.1-4-0.1-6c-0.1-14.5,0.2-28.5-1.8-43c-1-7-2.8-14.9-5.7-21.4
		c4.4,5.9,6.1,14.1,7.1,21.2c0.5,3.3,0.8,6.6,1.1,9.9C39.5,224.4,45.6,224.7,50.8,223.9L50.8,223.9z M102.6,316.2c-4,1-7.9,3.2-8,8
		l5.1,0C99.4,320.9,100.3,318.2,102.6,316.2z M78.2,212.6c-0.7,7.4,0.7,13.3,3.2,20.2v0c0.9,2.5,1.9,5,2.9,7.5
		c3,7.7,6.1,15.4,7.8,23.5c3.4,15.6-5.9,33.5-17.2,43.5c0.1,4.8-3.9,8.1-8.2,9.4c-2.7,1.5-3.6,4.3-3.5,7.2h18.3
		c1.2-6.4,4.9-11.3,10.7-14c2.8-17.1,8.8-33.6,16-49.3c-5.2-5.2-4.7-18.4-4.3-25.2c-2.9-3.9-5-8.6-6.4-13.1
		c-1.1-3.8-1.9-7.7-2.6-11.6C89.3,209.3,83.6,210.4,78.2,212.6L78.2,212.6z M64,317.3c-3.1,0.9-5.8,2.6-5.3,6.5H62
		C61.9,321.3,62.5,319,64,317.3z M10.9,241.3C4.5,230.5-3.9,224.7-14.7,221c4.3,7.6,6.3,16.8,7.9,25.3c1.2,6.2,1.8,12.5,0.9,18.8
		c3.6,6.7,3.8,13.7,2.9,21.1c-0.9,7.4-3.5,13.9-7.4,20.2c-0.2,6.3-4,8.7-9.7,9.7c-4.4,0.8-7.8,2.4-8.3,7.3l3.3,0
		c0.9-3.9,3.6-6.8,8-6.8c-2.9,0.6-5.3,3.1-6.2,6.8l18.1,0c1-5.8,3.5-11,8.3-14.6C1.7,296.5,3.4,284,5.7,272
		C7.8,261.8,10.3,251.8,10.9,241.3L10.9,241.3z M52.4,99.9c-0.4-3.1-0.9-6.1-1.6-8.8c-3.6-0.7-6-3.1-9.3-4.5
		c-3.5-1.5-7.7-1.2-10,2.1c-1.2,1.8-1.8,4.1-1.1,6.2c0.4,1.4,3.2,2.2,4.5,2.5C39.8,98.9,46.9,99.9,52.4,99.9L52.4,99.9z M53.6,113.2
		c-0.3-4-0.6-8-1-11.9c-6.7,0-14.5-0.8-20.7-3.4c-0.7-0.3-1.4-0.6-1.9-1c-2.2,0-4,1.7-5,3.6c-0.2,0.3-0.3,0.6-0.4,0.9l0,0l0,0v0
		c-0.8,2.1-1,5.2,0.6,7.1C33.8,112.6,44.1,113.4,53.6,113.2z M54.7,128c-0.2-3.3-0.4-6.6-0.7-10l0,0c-0.1-1.1-0.2-2.3-0.3-3.5
		c-9.4,0.2-19.4-0.5-28-4.4c-3.2-1.4-6.1-1.2-9,1.3c-2.3,2-3.8,5.7-2.2,8.4c0.4,0.6,0.9,1.1,1.5,1.5c1.9,1.4,4.4,2.3,6.5,3
		C31.3,127.2,44.6,128.3,54.7,128L54.7,128z M55.3,145.8c-0.1-5.5-0.3-10.9-0.6-16.4c-10.2,0.3-23.7-0.9-32.6-3.7
		c-2.3-0.7-4.9-1.7-6.9-3.2c-0.5-0.4-0.9-0.7-1.5-0.9c-3-1.3-6.7,0.2-9.1,2c-0.4,0.3-0.8,0.6-1.1,0.9l0,0l0,0h0
		c-2,2-3.6,5.4-3.2,8.2c0.3,2.4,2.5,3.9,4.4,5.1c7.4,4.5,16.3,6.5,25.1,7.4C38.3,146.1,46.9,146.5,55.3,145.8L55.3,145.8z
		 M56.5,90.7c0.6,2.9,1.1,5.9,1.5,8.9c5.2-0.5,10.7-1.6,15.4-3.9c2.5-1.2,2.1-4.8,0.9-6.7v0l0,0c-1.8-2.9-5.5-3.4-8.4-2.5
		C62.6,87.5,59.8,89.6,56.5,90.7z M58.2,101c0.5,4,0.9,7.9,1.3,11.9c6.6-0.6,13.1-2.2,19.3-4.6c0.8-0.3,1.6-0.5,2.2-1.2
		c1.3-1.5,1.5-3.8,1-5.8c-0.1-0.3-0.2-0.6-0.3-0.9l0,0c-1.2-2.8-4.6-4.2-7.5-3.6l0,0l0,0C69.4,99.3,63.7,100.4,58.2,101L58.2,101z
		 M59.6,114.2c0.1,1.3,0.2,2.6,0.3,3.9c0.3,3.2,0.5,6.4,0.7,9.6c10.1-0.9,19.9-3.3,28.9-8c0.8-0.4,1-0.5,1.4-1.3
		c0.8-1.8,0.8-3.9-0.1-5.7c-1.7-3.3-5.4-4.9-9-4c-0.9,0.2-1.8,0.6-2.7,1C72.9,112,66.3,113.6,59.6,114.2L59.6,114.2z M60.7,129
		c0.3,5.4,0.5,10.8,0.6,16.2c12.5-1.3,26.3-2.3,37.6-8.2l0,0c1.6-0.8,3.1-1.9,4.2-3.2c3.1-3.8,1.4-8.5-2.1-11.5
		c-2.6-2.2-5.4-2.9-8.7-2.2c-0.9,0.2-1.3,0.4-2.2,0.8C80.9,125.6,70.9,128.1,60.7,129L60.7,129z M-40,97c0.9,0.8,1.7,1.6,2.4,2.5
		c-0.4-1.3-1.1-2.4-1.9-3.5C-39.7,96.3-39.8,96.6-40,97z M-65.2,88.3c1-0.2,2-0.3,3-0.3l0.1,1.3c-3.3,0.1-6.5,0.9-9.3,2.6l1,0.9
		c4.1-1.6,8.2-2.5,12.8-2.5l0,0c3.2-0.1,6.4,0.4,9.4,1.5c0.6-0.7,1.3-1.4,2-2.1c-4.1-2.8-9-4.1-13.9-4.5l1.4,1.7
		c-2.4-0.1-4.9-0.1-7.3,0.1L-65.2,88.3L-65.2,88.3z"/>
	<path id="_153069736" class="st9" d="M132.1,168.5c6.3-0.8,12.2,2.1,15.3,12.7c1.4,4.8,2.5,10.7,2.2,15.4
		c-0.6,10.2-3.6,18.3-1.8,29c-2.3-3.3-3.2-9.7-2.5-17.4c-0.9,2.2-1.2,3.2-1.8,5.6c-0.8-6.1,0.3-12.5,1.2-18.9
		c0.8-5.2,1.4-9.4-0.1-14.5c-2.3-8-6.5-11.2-12.2-10.9C132.4,169.1,132.3,168.8,132.1,168.5L132.1,168.5z M58.1,97.3
		c2.4-0.3,4.8-0.7,7.3-1.2c3.7-0.8,9.5-3.9,5.5-8.2c-1.2-1.2-3.5-1.3-6.4-0.8c-2.3,0.9-4.5,2.3-6.8,3.3C57.8,92.6,58,94.9,58.1,97.3
		z M30.2,92.1c0.7,1.3,3,2,4.3,2.5c5,2,10.9,3,17.1,3c-0.3-2.2-0.7-4.4-1.2-6.6c-3.4-0.8-5.8-3-8.9-4.4c-3.5-1.5-7.7-1.2-10,2.1
		C30.9,89.8,30.4,90.9,30.2,92.1z M30.1,97c-1.6,0.8-3.1,1.4-3.7,2.7c-2.4,4.7,2.3,6.5,6,7.5c6.8,1.8,13.7,2.6,20.7,2.5
		c-0.2-2.8-0.5-5.6-0.8-8.4c-6.6,0-14.2-0.9-20.3-3.4C31.2,97.6,30.6,97.3,30.1,97z M60,109.2c5.3-0.6,10.7-1.8,16.1-3.5
		c2.7-0.9,4-2.6,3.7-4.3c-0.6-3.5-3.2-4.3-6.3-4.1c-4.1,1.9-8.7,2.9-13.2,3.5C59.8,103.6,59.9,106.4,60,109.2L60,109.2z M61.2,123.1
		c6.4-0.7,12.8-2,19.3-4c2.7-0.8,8.3-1.6,8.4-5.2c0.1-2.6-2.9-5.3-7.4-5.1c-0.8,0.2-1.5,0.5-2.2,0.8c-5.9,2.2-12,3.7-18.2,4.4
		C60.9,117,61,120,61.2,123.1L61.2,123.1z M22.6,109.3c-3.2,0.7-5.4,3.3-5.4,5.8c0.1,4,3.9,4.6,6.9,5.3c9.9,2.3,19.8,3.5,29.7,3.1
		c-0.2-3-0.3-6.1-0.5-9.1c-9.3,0.2-19.2-0.6-27.7-4.4C24.6,109.7,23.6,109.4,22.6,109.3z M62.2,130.4c9.3-1.1,18.7-3.6,28.2-7.9
		c3-1.4,8.2-1.7,9.8,2c0.9,1.9,1.6,5.7-1.4,7.2c-8.4,4.1-23.8,7.9-36.6,9.1C62.2,137.4,62.3,133.9,62.2,130.4L62.2,130.4z
		 M54.8,141.4c-11.7,0.4-25.4-0.7-36.3-3.6c-3.2-0.9-10.7-2.7-13.3-5.1c-4.6-4.4,1.7-9.6,7.8-8.9c1.9,0.2,3.5,1.2,5.7,2.1
		c10.7,4.2,24.2,5.5,35.6,5.1C54.5,134.4,54.6,137.9,54.8,141.4z M92.7,203.4c-0.9-9-2-18.9-5.7-27.5c-0.6-1.1-1.2-2.1-1.9-3.1
		c0.7,0.5,1.3,1.1,1.8,1.7c2.4,2.1,4.5,6.1,6.4,11.1c2.8,7.5,3.8,15.1,5.3,22.9c2,10.4,4.8,20.6,11,26.3c2.2,2,2.6,2.3,3.3,5.1
		c2.2,8.6,5.6,16.2,9.3,23.2c4.8,8.9,1.1,29.9-6.8,46.4c-2.1,4.4-5.6,5.9-8.2,6.8c-3.5,1.2-4.7,4.7-4.7,7.3h13.9
		c1.1-5.9,3.8-10.6,9.2-13.2c2.2-19.1,2.5-35.6,7.9-54c-10.1-12.3-9-31.5-3.4-53.2c4.7-15,2.4-32.4-7-43.2
		c-4.1-8.4-10.6-15.7-16.7-21.2c-11.5,6.5-29.8,11.1-43.6,12.4c0.2,20.6-0.2,42-3,65.7C69.2,211.8,75.1,203.2,92.7,203.4L92.7,203.4
		z M51.6,219.5c2.4-15.2,3-30.5,3.4-45.9l0,0c0.1-7.3,0.2-14.6,0-21.9c-19.2,1.1-41-0.5-56.5-10.7c-1.5,1.4-2.9,2.7-3.7,3.9l1,0.1
		c-1.6,1.2-2.9,2.8-3.9,4.4c0.4-0.1,0.7-0.1,1.1-0.1c-1.4,1.3-3.8,4.1-4.4,6.1c0.7-0.3,1.3-0.6,2-0.7l-1.6,3.9l1.1-0.3
		c-0.8,1.4-2.4,4.3-3,5.9c-2,4.9-4.2,12.3-11.2,11.2c-10.6-1.6-13.2-12.6-14.1-25.9l1.6,0.8c-0.9-7.3,0.6-15.2-2.1-21.1
		c1.5,0.5,2.6,1.4,3.5,2.4c2.1-12.6,0-24.7-6.4-32.2c-1.1,1.3-2.5,2.6-4.1,3.6l-1.7,0l0,0l-0.1,0l-0.3-0.2c4.5-3.1,8.4-7.9,7.6-14.3
		c-5.1,1.3-7.9,5-10.3,9.1c-0.1,0.3-0.2,0.6-0.4,0.9l-0.6-0.1v0l0,0c0.3-1.6,0.9-3.2,1.7-4.7c-8.3-1.6-15.8-0.9-22.6,2.5
		c-4.1,2.1-10.7,3.5-18.5,5.7c-3.6,1-5.4,2.7-5.5,4.3c0.4-0.2,0.9-0.5,1.3-0.7c0.9-0.5,2-1.1,3.1-0.8c0.9,0.2,1,1.3-0.3,1.7
		c-1.1,0.3-2.1,0.6-3.1,0.9c-1.7,1.2-3.5,3-4.4,4.8c-2.1,4-0.6,6.3,4.2,5.5c2.5-0.4,5.8-2.8,8.1-4c0.6,1.3,1.2,2.7,1.8,4
		c-3.6,0.9-6.9,2.1-9.6,3.5c0.5,0.7,1.1,1.4,1.6,2.1c3.3-2.8,7.6-3.1,12.3-2.5c7.9,1.1,14.6,1.1,20.7-0.7c9.1-2.6,16.2-10,18.8-19.7
		l-0.3,3.9c0-0.2,0.1-0.4,0.1-0.6c0,5.5-2.2,10.1-6.6,13.4c1,0.1,1.9,0.2,2.9,0.3c-2.3,1.4-4.6,2.6-7.3,3.1l1.5,1.1
		c-4.9,1.7-9.8,2.9-15.1,3c-1.3,0-2.5,0-3.7-0.1c4,4.2,2.9,16,0.4,29.7c1-0.5,1.9-0.9,2.9-1.4c-2.4,7-3.2,14-1.5,21.2l3.2-3.5
		c0.2,6.7,0.5,13.4,4,19.5c0.7-1.3,1.5-2.7,2.2-4c0.2,7.5,2.4,13.4,6.5,18.2c0.2-1.2,0.3-2.5,0.5-3.7c2.1,4.9,6.6,9.9,13.1,12.2
		c-0.2-0.8-0.3-1.6-0.5-2.4c5.8,3.1,14.7,4.9,24.4,6.5c6.7,1.1,13.7,4.1,18.9,8.5c-0.6-8.8,0.7-16.6,5.4-22.9c0.6-1,1.3-2,2.1-2.9
		c-0.9,1.3-1.6,2.7-2.2,4.3c-1.2,7.8-1.3,18.6,1.4,26.8c4,12.4,10.3,18.7,9.2,33.3c6.1,7.3,4.1,18,3.2,28.4c-0.9,9.6-2.8,15-7.7,19
		c0.1,4-2.2,6.4-5.7,6.5c-4.2,0.1-6.7,1.2-7.4,4.8h3.8c1.3-3.2,5.4-5.1,8.9-5.6c-2.6,1.4-4.5,3.1-5.7,5.6h13c0.9-4,3-7.8,7.6-11.4
		c-1.6-8.8,0-18.2,0.1-27.1c0.1-7.4,0.2-14.8,0.3-22.2c0.1-26-0.8-51.4-7.7-70.5c0.3,0.2,0.6,0.5,0.9,0.8c0-0.1-0.1-0.2-0.1-0.2
		c4.4,5.9,6.1,14.1,7.1,21.2c0.2,1.7,0.5,3.4,0.6,5.1C36.8,219.6,45,220.5,51.6,219.5L51.6,219.5z M102.6,316.2
		c-1,0.3-1.9,0.6-2.9,1c-2.3,1.6-3.2,4-3.7,6.4h3.6C99.5,320.5,100.5,318.1,102.6,316.2z M65,323.3h14.9c1.2-5,4.4-9.8,11.4-14
		c2.9-17.2,8.9-33.8,15.7-48.9c-3.7-4.5-4.3-14.4-4.8-24.8c-4.9-7.6-7.1-15.7-8.6-23.8c-2.4-0.4-5.7-0.1-9.1,0.4
		c-3.6,4.8-3.5,10-1.7,15.2c3.3,9.3,6.9,18.1,9.7,27.6c4.2,14.4,1.7,28.3-5.5,40c-3,4.9-7.6,10.9-11.4,13.4c-1,4.2-2.8,6.8-5.5,8.1
		C67,318,65.4,320.3,65,323.3L65,323.3z M64,317.3c-0.3,0.1-0.5,0.2-0.8,0.2c-3.1,1.3-3.5,3.6-4,5.8H62C62,321,62.6,318.9,64,317.3
		L64,317.3z M-27.1,322.5c0.8-4.3,3.9-5.6,11-6.8c4.2-0.7,7.3-4.4,6.3-8.7c8.1-10,11.9-32.8,5.5-42.1c0.4-12.4-1.5-25-3.9-37.7
		c7.3,5,13.8,8.5,16.1,15.7c1.2,3.7,0.6,9.7-0.4,14.6c-3.2,16.8-7.4,35.7-5.9,51.7c-4.3,4-6.8,8.3-7.8,13.4h-15.4
		c0.6-3,4.5-5.8,6.7-6.1c-4.4-0.1-8.4,1.3-9.8,6.1H-27.1z M-65.2,88.3c1-0.2,2-0.3,3-0.3l0.1,1.3c-3.3,0.1-6.5,0.9-9.3,2.6l0.5,0.5
		c7.3-3.6,16.6-3.8,22.9-0.9c0.3-0.4,0.6-0.7,0.9-1c-4-2.5-8.1-4.1-12.5-4.3l0.7,0.8c-2.4-0.1-4.9-0.1-7.3,0.1L-65.2,88.3
		L-65.2,88.3z"/>
	<path id="_153070024" class="st8" d="M73.6,149.3c10,1.3,15.5,7.6,19.6,16.2l-1.1,0.2l0,0c-0.7,0.1-1.5,0.2-2.2,0.2
		c3.4,4.1,5.6,8.5,6.9,13.7l-2.3-0.1c4,6,3.2,11.2,2.5,15.5c0-4.6,0.3-10-5.6-17.1l3.3,0.1c-1.6-5.5-4.8-9.6-8.6-13.8
		c1.6,0.2,3,0.2,4.7,0.1h0C86.4,155.4,81.7,152.9,73.6,149.3L73.6,149.3z M101.2,137.2c3.8,2.5,6.5,5.9,8.8,9.8h-2.9
		c7.2,4.8,9.6,12.5,10.5,22.5c-2.5-8.6-3.3-18.8-17.1-24.1h6.6c-2-2.9-4.6-5.5-7.6-7.3C100.2,137.8,100.7,137.5,101.2,137.2
		L101.2,137.2z M130.4,202.3c-1.3-1.1-2.7-2.1-4-3.3c0.9,2.8,1.4,5.5,1.6,8.4c-1.2-0.4-2.3-0.7-3.4-1.2c0.9,6.9-0.4,13.7-1,20.6v0
		c-0.1,0.8-0.1,1.7-0.1,2.5c0,5.2,0.9,11.3,3.4,16.4c-3.3-5-4.9-10.4-4.9-16.4c0-0.9,0-1.8,0.1-2.7v0c0.7-7.9,1.8-15.5,0.5-23.5
		c1.2,0.7,2.4,1.5,3.7,2c-0.6-4.5-2.3-8.6-4-12.8c2,2.3,3.4,3.6,5.6,5.7c-1.2-6-0.6-12.6-1.2-18.7c-0.9-8.9-3.8-17.6-11.1-23.4
		c9.1,4.3,11.9,13.8,12.7,23.2C129,187.2,128,194.5,130.4,202.3L130.4,202.3z M-41,107.1c0.4,4.6,0.1,8.3-2.2,12.4
		c1.2-0.1,2.4-0.1,3.6-0.2c-1.7,2-3.4,3.9-5.1,5.4c2,0,4.1,0,6.1,0c-8.4,3.7-9,11-11.1,18.2c-0.1-4.7,0.9-12.9,5.4-16.7
		c-1.2,0-2.5,0-3.7,0c1.7-1.9,3.4-3.6,4.9-5.3c-0.9,0-1.9,0.1-2.8,0.1C-42.9,116.7-41.6,112.1-41,107.1L-41,107.1z M-62.8,124.9
		c2.9,3.3,4.7,9,3.7,14.7c1.1-1.4,2.3-2.7,3.4-3.9c-1.6,5.4-3.3,10.7-3.7,16.3c1.6-1,3.2-2,4.7-3.1c-2.9,7-4.1,13.7-4.4,21.2
		c1.1-0.7,2.3-1.5,3.4-2.2c-0.8,5.3-0.6,12.8-0.3,17.4c-1.6-3.6-1.8-12.4-1.7-14.2c-1.1,0.7-2.1,1.4-3.2,2.1
		c0.2-6.8,0.6-13.7,2.8-20.2c-1,0.7-1.9,1.4-3,2.1c0.1-4.4,0.5-8.6,1.6-12.9c-1.1,1.3-1.6,2.2-2.8,3.5
		C-59.6,137.7-60,132.6-62.8,124.9L-62.8,124.9z M-17.3,179.9c-6.7,6.7-6.4,13.4-2.3,23.1c-3.2,7.5,5.5,13.7,11.6,17.4
		c2.6,1.6,5.3,3.6,6.9,5.6c-2.8-1.9-5.7-3.4-8.9-4.7c-6.5-4.1-14.5-10.5-11.6-18.3C-25.2,195.2-26.3,184.4-17.3,179.9z M-2.7,221.1
		c-8-2.8-13.9-12.4-14.1-20.8c0-2.3,1.5-5,4.1-4.4c-0.9-2.9-2.5-13.8,3.4-12.8c-0.1-7.4,1.9-13.7,8.1-18.1l1.2,2.8
		c2.2-6.1,7.4-13.9,14.5-14.9c7-1,10.1,5.4,10.9,11.2c-2.3-4.3-4.4-10.4-10.7-9.5C6.3,155.9,2.3,166,0.4,173l-2.3-5.2
		c-5.3,4.5-5.7,11.7-5.4,18c-7.8-3.9-3.3,11.1-2.5,14.1c-1.6-3-5.3-3.8-5.2,0.4C-14.8,209.5-8.7,217-2.7,221.1L-2.7,221.1z
		 M30.6,215.1c6.2,0.2,10.8-2.3,15.5-6.4c-0.3,1.7-0.6,3.3-1.1,4.9c2.6-1.9,5.2-3.6,8-5.1c-0.1,0.6-0.1,1.3-0.2,1.9
		c-4,2.4-7.4,4.9-11.1,7.7c0.7-1.8,1.4-3.5,1.9-5.3c-3.8,2.7-8.2,4-12.8,3.9C30.8,216.1,30.7,215.6,30.6,215.1L30.6,215.1z
		 M59.1,205.3c2.8-1.3,5.6-2.5,8.5-3.6c0.1,1.2,0.2,2.1-0.3,3.3c7.5-5.2,17.8-7.9,25.8-2.1c-12.8-5.2-23,1.5-32.5,9.6
		c1.8-2.6,4.4-5.5,5.4-8.4c-2.4,1-4.8,2-7.1,3.1C58.9,206.6,59,205.9,59.1,205.3L59.1,205.3z M31.5,178.6c4.9,10.6,3,23.2-1.2,34.1
		c-0.2-1.2-0.4-2.4-0.6-3.7C33.6,198.8,33.8,189.1,31.5,178.6z M-49.7,98.8c1.6-3.6,3.7-6.4,7.3-8c0.5,5.4-2.3,9.5-7,11.4l0.4-0.9
		c3.3-1.9,5.6-4.9,5.6-8.7c-2.5,1.4-4.6,3.9-5.7,6.6L-49.7,98.8L-49.7,98.8z M-71.3,119.4c-0.3-0.4-0.5-0.9-0.8-1.3
		c3.2,0.3,6.3,0.5,9.4,0.1c-0.8-0.7-1.6-1.5-2.3-2.2c2.6,0.2,5.2,0.4,7.7-0.2c-0.9-0.5-1.8-1.1-2.7-1.8c4.6-0.5,8.2-2.1,11.5-5
		c-2.3,3.2-4.6,4.9-8.4,5.7c0.8,0.6,1.5,1.1,2.3,1.5c-2.5,1-4.9,1.4-7.4,1.1c0.6,0.6,1.2,1.1,1.8,1.7c-3.3,0.7-6.5,0.7-9.7,0.5
		c0.2,0.4,0.4,0.7,0.6,1.1c-3.2,0.1-6.6,0-9.4-1.4C-76.4,119.3-73.6,119.5-71.3,119.4L-71.3,119.4z M3.6,267c-2.3,0.5-4.9,0.1-7-1.4
		c1.7,0.3,3.4,0.6,5.4,0.1c0-3.5-2.4-7.5-6.1-8.3C1.6,257.9,3.9,260.7,3.6,267L3.6,267z M26.9,267.8c-2,0.3-3.8-0.7-5.6-2
		c1.5,0,2.5,0.5,4.1,0.6c0-2.9-1.7-8.8-5.3-9.7C26.1,257.3,27.2,262.9,26.9,267.8z M105.3,259.1c-2.8-0.8-5.1-0.7-6.5-0.2
		c-3.5,1.3-2.2,7.3-2,10.1c-1.6-2.9-3.2-10.1,1.1-11.7C100.4,256.5,103.8,256.9,105.3,259.1L105.3,259.1z M130.3,253.7
		c-1.8-0.5-5.2-0.8-6.2,1.3c-1.6,3,0.4,7.9,1.5,10.9c-1.9-1.5-5-7-3-11.6C123.7,252.1,127.2,250.7,130.3,253.7z"/>
	<path id="_153069880" class="st10" d="M55.3,222.9c1.1-8.2,2.5-16.9,3.2-25.1l0,0c1-11.8,1.3-23.7,1.5-35.6
		c0.1-14.7-0.1-29.4-1.4-44c-0.7-8.8-1.5-17.7-3.3-26.4c-0.4-1.9,0.1-1.5-1.6-1.7c-1.4-0.2-2-0.4-1.6,0.9c1.6,6.3,2.2,14.2,2.8,21.7
		c0.1,1.8,0.3,3.5,0.4,5.3l0,0c1.3,15.6,1.6,31.4,1.2,47.1c-0.5,19.5-0.8,39.4-4.3,58.6C53.3,223.4,54.4,223.2,55.3,222.9
		L55.3,222.9z"/>
	<path id="_153069664" class="st8" d="M-65.2,100.4c0.2,0.4,0.4,0.8,0.4,1.3c0,1.4-1.2,2.6-2.6,2.6c-1.4,0-2.6-1.1-2.6-2.6
		c-1,0.3-2.1,0.6-3,0.5c0-2.4,2.7-4.4,4.7-5.4c0,0.2,0.1,0.3,0.1,0.5c0.9-0.6,1.9-0.9,2.9-1.2v0.4c0.8-0.3,1.6-0.4,2.4-0.5
		c1.2,1,2.2,2.2,2.8,3.7C-61.9,99.9-63.5,100-65.2,100.4L-65.2,100.4z M-67,100.9c-0.6,0.2-1.1,0.3-1.7,0.5
		c-0.1,0.1-0.1,0.3-0.1,0.4c0,0.6,0.5,1.1,1.1,1.1c0.6,0,1.1-0.5,1.1-1.1C-66.6,101.4-66.7,101.1-67,100.9L-67,100.9z M-71.9,101
		c1.4-0.3,2.5-1,3.9-1.4c2-0.6,4.2-0.9,6.3-1c-0.5-0.7-1-1.2-1.6-1.8c-1.1,0.1-2,0.4-2.9,0.9v-0.6v0c-0.9,0.3-1.8,0.8-2.6,1.4
		l-0.2-0.6C-70.2,98.7-71.2,99.8-71.9,101L-71.9,101z"/>
	<path id="_153069592" class="st7" d="M-65.9,100.1c0.2,0.4,0.4,0.8,0.4,1.3c0,1.4-1.2,2.6-2.6,2.6c-1.4,0-2.6-1.1-2.6-2.6
		c-1,0.3-2.1,0.6-3,0.5c0-2.4,2.7-4.4,4.7-5.4c0,0.2,0.1,0.3,0.1,0.5c0.9-0.6,1.9-0.9,2.9-1.2v0.4c0.8-0.3,1.6-0.4,2.4-0.5
		c1.2,1,2.2,2.2,2.8,3.7C-62.6,99.6-64.2,99.7-65.9,100.1L-65.9,100.1z M-67.7,100.6c-0.6,0.2-1.1,0.3-1.7,0.5
		c-0.1,0.1-0.1,0.3-0.1,0.4c0,0.6,0.5,1.1,1.1,1.1c0.6,0,1.1-0.5,1.1-1.1C-67.2,101.1-67.4,100.8-67.7,100.6L-67.7,100.6z
		 M-72.6,100.8c1.4-0.3,2.5-1,3.9-1.4c2-0.6,4.2-0.9,6.3-1c-0.5-0.7-1-1.2-1.6-1.8c-1.1,0.1-1.9,0.4-2.9,0.9V97v0
		c-0.9,0.3-1.8,0.8-2.6,1.4l-0.2-0.6C-70.8,98.4-71.9,99.5-72.6,100.8L-72.6,100.8z"/>
</g>
</svg>
