<svg id="Слой_1" data-name="Слой 1" xmlns="http://www.w3.org/2000/svg" width="204" height="410" viewBox="0 0 204 410">
  <title>rk-grey</title>
  <path d="M55.91,2.9a5,5,0,0,1,5,5v44a5,5,0,0,1-5,5h-48a5,5,0,0,1-5-5V7.9a5,5,0,0,1,5-5h48m0-3h-48a8,8,0,0,0-8,8v44a8,8,0,0,0,8,8h48a8,8,0,0,0,8-8V7.9a8,8,0,0,0-8-8Z" style="fill: #666"/>
  <path d="M45.91,10.9v22h-28v-22h28m3-3h-34v28h34V7.9Z" style="fill: #666"/>
  <line x1="31.91" y1="37.9" x2="31.91" y2="50.9" style="fill: none;stroke: #666;stroke-miterlimit: 10;stroke-width: 8px"/>
  <line x1="25.91" y1="50.9" x2="37.91" y2="50.9" style="fill: none;stroke: #666;stroke-miterlimit: 10;stroke-width: 2px"/>
  <line x1="44.91" y1="9.9" x2="20.91" y2="33.9" style="fill: none;stroke: #666;stroke-linecap: round;stroke-miterlimit: 10"/>
  <line x1="46.91" y1="15.9" x2="28.91" y2="33.9" style="fill: none;stroke: #666;stroke-linecap: round;stroke-miterlimit: 10"/>
  <line x1="46.91" y1="23.9" x2="36.91" y2="33.9" style="fill: none;stroke: #666;stroke-linecap: round;stroke-miterlimit: 10"/>
  <g>
    <path d="M55.91,142.9a5,5,0,0,1,5,5v44a5,5,0,0,1-5,5h-48a5,5,0,0,1-5-5v-44a5,5,0,0,1,5-5h48m0-3h-48a8,8,0,0,0-8,8v44a8,8,0,0,0,8,8h48a8,8,0,0,0,8-8v-44a8,8,0,0,0-8-8Z" style="fill: #666"/>
    <g>
      <path d="M46.28,151.9l-7.18,7.63-1.29,1.37,1.29,1.38,7.18,7.62H20.91v-18H46.28m4.63-2h-32v22h32l-10.35-11,10.35-11Z" style="fill: #666"/>
      <line x1="18.91" y1="147.9" x2="18.91" y2="190.9" style="fill: none;stroke: #666;stroke-miterlimit: 10;stroke-width: 4px"/>
      <line x1="14.91" y1="190.9" x2="22.91" y2="190.9" style="fill: none;stroke: #666;stroke-miterlimit: 10;stroke-width: 2px"/>
    </g>
  </g>
  <g>
    <path d="M125.91,72.9a5,5,0,0,1,5,5v44a5,5,0,0,1-5,5h-48a5,5,0,0,1-5-5v-44a5,5,0,0,1,5-5h48m0-3h-48a8,8,0,0,0-8,8v44a8,8,0,0,0,8,8h48a8,8,0,0,0,8-8v-44a8,8,0,0,0-8-8Z" style="fill: #666"/>
    <g>
      <path d="M122.91,80.9v26h-42v-26h42m3-3h-48v32h48v-32Z" style="fill: #666"/>
      <line x1="101.91" y1="111.9" x2="101.91" y2="120.9" style="fill: none;stroke: #666;stroke-miterlimit: 10;stroke-width: 8px"/>
      <line x1="95.91" y1="120.9" x2="107.91" y2="120.9" style="fill: none;stroke: #666;stroke-miterlimit: 10;stroke-width: 2px"/>
      <line x1="123.91" y1="81.9" x2="97.91" y2="107.9" style="fill: none;stroke: #666;stroke-linecap: round;stroke-miterlimit: 10"/>
      <line x1="117.91" y1="79.9" x2="89.91" y2="107.9" style="fill: none;stroke: #666;stroke-linecap: round;stroke-miterlimit: 10"/>
      <line x1="123.91" y1="89.9" x2="105.91" y2="107.9" style="fill: none;stroke: #666;stroke-linecap: round;stroke-miterlimit: 10"/>
      <line x1="123.91" y1="97.9" x2="113.91" y2="107.9" style="fill: none;stroke: #666;stroke-linecap: round;stroke-miterlimit: 10"/>
    </g>
  </g>
  <g>
    <path d="M125.91,2.9a5,5,0,0,1,5,5v44a5,5,0,0,1-5,5h-48a5,5,0,0,1-5-5V7.9a5,5,0,0,1,5-5h48m0-3h-48a8,8,0,0,0-8,8v44a8,8,0,0,0,8,8h48a8,8,0,0,0,8-8V7.9a8,8,0,0,0-8-8Z" style="fill: #666"/>
    <g>
      <line x1="101.91" y1="43.9" x2="101.91" y2="50.9" style="fill: none;stroke: #666;stroke-miterlimit: 10;stroke-width: 8px"/>
      <line x1="95.91" y1="50.9" x2="107.91" y2="50.9" style="fill: none;stroke: #666;stroke-miterlimit: 10;stroke-width: 2px"/>
      <path d="M111.91,13.9v25h-20v-25h20m3-3h-26v31h26v-31Z" style="fill: #666"/>
      <path d="M109.91,15.9v21h-16v-21h16m1-1h-18v23h18v-23Z" style="fill: #666"/>
      <line x1="97.91" y1="8.9" x2="105.91" y2="8.9" style="fill: none;stroke: #666;stroke-miterlimit: 10;stroke-width: 2px"/>
      <line x1="109.91" y1="16.9" x2="93.91" y2="32.9" style="fill: none;stroke: #666;stroke-linecap: square;stroke-miterlimit: 10"/>
      <line x1="109.91" y1="24.9" x2="97.91" y2="36.9" style="fill: none;stroke: #666;stroke-linecap: square;stroke-miterlimit: 10"/>
      <line x1="109.91" y1="32.9" x2="105.91" y2="36.9" style="fill: none;stroke: #666;stroke-linecap: square;stroke-miterlimit: 10"/>
    </g>
  </g>
  <g>
    <path d="M195.91,2.9a5,5,0,0,1,5,5v44a5,5,0,0,1-5,5h-48a5,5,0,0,1-5-5V7.9a5,5,0,0,1,5-5h48m0-3h-48a8,8,0,0,0-8,8v44a8,8,0,0,0,8,8h48a8,8,0,0,0,8-8V7.9a8,8,0,0,0-8-8Z" style="fill: #666"/>
    <g>
      <path d="M192.91,15.9v28h-42v-28h42m3-3h-48v34h48v-34Z" style="fill: #666"/>
      <rect x="168.91" y="38.9" width="6" height="2" style="fill: #666;stroke: #666;stroke-miterlimit: 10"/>
      <line x1="171.91" y1="17.9" x2="171.91" y2="20.9" style="fill: none;stroke: #666;stroke-miterlimit: 10"/>
      <line x1="179.91" y1="28.9" x2="182.91" y2="28.9" style="fill: none;stroke: #666;stroke-miterlimit: 10"/>
      <line x1="160.91" y1="28.9" x2="163.91" y2="28.9" style="fill: none;stroke: #666;stroke-miterlimit: 10"/>
      <line x1="162.39" y1="23.4" x2="164.98" y2="24.9" style="fill: none;stroke: #666;stroke-miterlimit: 10"/>
      <line x1="175.91" y1="21.98" x2="177.41" y2="19.38" style="fill: none;stroke: #666;stroke-miterlimit: 10"/>
      <line x1="178.84" y1="32.9" x2="181.44" y2="34.4" style="fill: none;stroke: #666;stroke-miterlimit: 10"/>
      <line x1="166.41" y1="19.38" x2="167.91" y2="21.98" style="fill: none;stroke: #666;stroke-miterlimit: 10"/>
      <line x1="178.84" y1="24.9" x2="181.44" y2="23.4" style="fill: none;stroke: #666;stroke-miterlimit: 10"/>
      <line x1="162.39" y1="34.4" x2="164.98" y2="32.9" style="fill: none;stroke: #666;stroke-miterlimit: 10"/>
      <path d="M171.91,23.9a5,5,0,0,1,2.5,9.33l-.5.29V36.9h-4V33.52l-.5-.29a5,5,0,0,1,2.5-9.33m0-1a6,6,0,0,0-3,11.2v3.8h6V34.1a6,6,0,0,0-3-11.2Z" style="fill: #666"/>
    </g>
  </g>
  <g>
    <path d="M55.91,72.9a5,5,0,0,1,5,5v44a5,5,0,0,1-5,5h-48a5,5,0,0,1-5-5v-44a5,5,0,0,1,5-5h48m0-3h-48a8,8,0,0,0-8,8v44a8,8,0,0,0,8,8h48a8,8,0,0,0,8-8v-44a8,8,0,0,0-8-8Z" style="fill: #666"/>
    <g>
      <path d="M54.91,79.9v24h-46v-24h46m1-1h-48v26h48v-26Z" style="fill: #666"/>
      <path d="M52.91,81.9v19h-42v-19h42m2-2h-46v23h46v-23Z" style="fill: #666"/>
      <line x1="31.91" y1="106.9" x2="31.91" y2="121.9" style="fill: none;stroke: #666;stroke-miterlimit: 10;stroke-width: 8px"/>
      <line x1="53.91" y1="81.9" x2="33.91" y2="101.9" style="fill: none;stroke: #666;stroke-linecap: round;stroke-miterlimit: 10"/>
      <line x1="53.91" y1="87.9" x2="39.91" y2="101.9" style="fill: none;stroke: #666;stroke-linecap: round;stroke-miterlimit: 10"/>
      <line x1="54.91" y1="92.9" x2="45.91" y2="101.9" style="fill: none;stroke: #666;stroke-linecap: round;stroke-miterlimit: 10"/>
      <rect x="7.91" y="101.9" width="3" height="3" style="fill: #fff;stroke: #666;stroke-miterlimit: 10"/>
      <rect x="52.91" y="101.9" width="3" height="3" style="fill: #fff;stroke: #666;stroke-miterlimit: 10"/>
      <rect x="29.91" y="101.9" width="4" height="3" style="fill: #fff;stroke: #666;stroke-miterlimit: 10"/>
      <rect x="18.91" y="101.9" width="3" height="3" style="fill: #fff;stroke: #666;stroke-miterlimit: 10"/>
      <rect x="41.91" y="101.9" width="3" height="3" style="fill: #fff;stroke: #666;stroke-miterlimit: 10"/>
      <rect x="29.91" y="75.9" width="6" height="2" style="fill: #fff;stroke: #666;stroke-miterlimit: 10"/>
      <rect x="15.91" y="75.9" width="6" height="2" style="fill: #fff;stroke: #666;stroke-miterlimit: 10"/>
      <rect x="43.91" y="75.9" width="6" height="2" style="fill: #fff;stroke: #666;stroke-miterlimit: 10"/>
      <line x1="48.8" y1="80.9" x2="27.8" y2="101.9" style="fill: none;stroke: #666;stroke-linecap: round;stroke-miterlimit: 10"/>
    </g>
  </g>
  <g>
    <path d="M195.91,72.9a5,5,0,0,1,5,5v44a5,5,0,0,1-5,5h-48a5,5,0,0,1-5-5v-44a5,5,0,0,1,5-5h48m0-3h-48a8,8,0,0,0-8,8v44a8,8,0,0,0,8,8h48a8,8,0,0,0,8-8v-44a8,8,0,0,0-8-8Z" style="fill: #666"/>
    <g>
      <path d="M192.91,88.9v25h-42v-25h42m3-3h-48v31h48v-31Z" style="fill: #666"/>
      <path d="M190.91,90.9v21h-38v-21h38m1-1h-40v23h40v-23Z" style="fill: #666"/>
      <line x1="190.91" y1="94.9" x2="173.91" y2="111.9" style="fill: none;stroke: #666;stroke-linecap: square;stroke-miterlimit: 10"/>
      <line x1="190.91" y1="100.9" x2="179.91" y2="111.9" style="fill: none;stroke: #666;stroke-linecap: square;stroke-miterlimit: 10"/>
      <line x1="190.91" y1="106.9" x2="185.91" y2="111.9" style="fill: none;stroke: #666;stroke-linecap: square;stroke-miterlimit: 10"/>
      <line x1="188.8" y1="90.9" x2="167.8" y2="111.9" style="fill: none;stroke: #666;stroke-linecap: square;stroke-miterlimit: 10"/>
      <rect x="148.91" y="82.9" width="6" height="2" style="fill: #fff;stroke: #666;stroke-miterlimit: 10"/>
      <rect x="188.91" y="82.9" width="6" height="2" style="fill: #fff;stroke: #666;stroke-miterlimit: 10"/>
      <rect x="168.91" y="82.9" width="6" height="2" style="fill: #fff;stroke: #666;stroke-miterlimit: 10"/>
      <rect x="178.91" y="82.9" width="6" height="2" style="fill: #fff;stroke: #666;stroke-miterlimit: 10"/>
      <rect x="158.91" y="82.9" width="6" height="2" style="fill: #fff;stroke: #666;stroke-miterlimit: 10"/>
    </g>
  </g>
  <g>
    <path d="M125.91,142.9a5,5,0,0,1,5,5v44a5,5,0,0,1-5,5h-48a5,5,0,0,1-5-5v-44a5,5,0,0,1,5-5h48m0-3h-48a8,8,0,0,0-8,8v44a8,8,0,0,0,8,8h48a8,8,0,0,0,8-8v-44a8,8,0,0,0-8-8Z" style="fill: #666"/>
    <g>
      <line x1="81.41" y1="152.9" x2="81.41" y2="185.9" style="fill: none;stroke: #666;stroke-miterlimit: 10;stroke-width: 3px"/>
      <line x1="77.91" y1="185.9" x2="84.91" y2="185.9" style="fill: none;stroke: #666;stroke-miterlimit: 10;stroke-width: 2px"/>
      <line x1="122.41" y1="152.9" x2="122.41" y2="185.9" style="fill: none;stroke: #666;stroke-miterlimit: 10;stroke-width: 3px"/>
      <line x1="118.91" y1="185.9" x2="125.91" y2="185.9" style="fill: none;stroke: #666;stroke-miterlimit: 10;stroke-width: 2px"/>
      <path d="M115.91,154.9v14h-28v-14h28m2-2h-32v18h32v-18Z" style="fill: #666"/>
      <line x1="81.91" y1="161.9" x2="86.91" y2="161.9" style="fill: none;stroke: #666;stroke-miterlimit: 10;stroke-width: 2px"/>
      <line x1="116.91" y1="161.9" x2="121.91" y2="161.9" style="fill: none;stroke: #666;stroke-miterlimit: 10;stroke-width: 2px"/>
      <line x1="91.91" y1="159.4" x2="100.91" y2="159.4" style="fill: none;stroke: #666;stroke-miterlimit: 10"/>
      <line x1="91.91" y1="164.4" x2="100.91" y2="164.4" style="fill: none;stroke: #666;stroke-miterlimit: 10"/>
      <line x1="102.91" y1="159.4" x2="111.91" y2="159.4" style="fill: none;stroke: #666;stroke-miterlimit: 10"/>
      <line x1="102.91" y1="164.4" x2="111.91" y2="164.4" style="fill: none;stroke: #666;stroke-miterlimit: 10"/>
    </g>
  </g>
  <g>
    <path d="M195.91,282.9a5,5,0,0,1,5,5v44a5,5,0,0,1-5,5h-48a5,5,0,0,1-5-5v-44a5,5,0,0,1,5-5h48m0-3h-48a8,8,0,0,0-8,8v44a8,8,0,0,0,8,8h48a8,8,0,0,0,8-8v-44a8,8,0,0,0-8-8Z" style="fill: #666"/>
    <g>
      <line x1="151.41" y1="296.9" x2="151.41" y2="325.9" style="fill: none;stroke: #666;stroke-miterlimit: 10;stroke-width: 3px"/>
      <line x1="147.91" y1="325.9" x2="154.91" y2="325.9" style="fill: none;stroke: #666;stroke-miterlimit: 10;stroke-width: 2px"/>
      <line x1="192.41" y1="296.9" x2="192.41" y2="325.9" style="fill: none;stroke: #666;stroke-miterlimit: 10;stroke-width: 3px"/>
      <line x1="188.91" y1="325.9" x2="195.91" y2="325.9" style="fill: none;stroke: #666;stroke-miterlimit: 10;stroke-width: 2px"/>
      <path d="M169.91,293.9v8h-13v-8h13m1-1h-15v10h15v-10Z" style="fill: #666"/>
      <path d="M186.91,293.9v8h-13v-8h13m1-1h-15v10h15v-10Z" style="fill: #666"/>
      <line x1="151.91" y1="298.4" x2="156.91" y2="298.4" style="fill: none;stroke: #666;stroke-miterlimit: 10;stroke-width: 3px"/>
      <line x1="169.91" y1="298.4" x2="173.91" y2="298.4" style="fill: none;stroke: #666;stroke-miterlimit: 10;stroke-width: 3px"/>
      <line x1="186.91" y1="298.4" x2="191.91" y2="298.4" style="fill: none;stroke: #666;stroke-miterlimit: 10;stroke-width: 3px"/>
      <line x1="158.91" y1="296.4" x2="167.91" y2="296.4" style="fill: none;stroke: #666;stroke-miterlimit: 10"/>
      <line x1="158.91" y1="299.4" x2="167.91" y2="299.4" style="fill: none;stroke: #666;stroke-miterlimit: 10"/>
      <line x1="175.91" y1="296.4" x2="184.91" y2="296.4" style="fill: none;stroke: #666;stroke-miterlimit: 10"/>
      <line x1="175.91" y1="299.4" x2="184.91" y2="299.4" style="fill: none;stroke: #666;stroke-miterlimit: 10"/>
    </g>
  </g>
  <g>
    <path d="M195.91,142.9a5,5,0,0,1,5,5v44a5,5,0,0,1-5,5h-48a5,5,0,0,1-5-5v-44a5,5,0,0,1,5-5h48m0-3h-48a8,8,0,0,0-8,8v44a8,8,0,0,0,8,8h48a8,8,0,0,0,8-8v-44a8,8,0,0,0-8-8Z" style="fill: #666"/>
    <g>
      <line x1="158.91" y1="148.9" x2="158.91" y2="190.9" style="fill: none;stroke: #666;stroke-miterlimit: 10;stroke-width: 4px"/>
      <line x1="154.91" y1="190.9" x2="162.91" y2="190.9" style="fill: none;stroke: #666;stroke-miterlimit: 10;stroke-width: 2px"/>
      <line x1="154.91" y1="148.9" x2="162.91" y2="148.9" style="fill: none;stroke: #666;stroke-miterlimit: 10;stroke-width: 2px"/>
      <path d="M186.91,152.9v35h-20v-35h20m2-2h-24v39h24v-39Z" style="fill: #666"/>
      <line x1="159.91" y1="181.9" x2="165.91" y2="181.9" style="fill: none;stroke: #666;stroke-miterlimit: 10;stroke-width: 2px"/>
      <line x1="159.91" y1="158.9" x2="165.91" y2="158.9" style="fill: none;stroke: #666;stroke-miterlimit: 10;stroke-width: 2px"/>
      <line x1="171.91" y1="158.4" x2="181.91" y2="158.4" style="fill: none;stroke: #666;stroke-miterlimit: 10"/>
      <line x1="171.91" y1="164.4" x2="181.91" y2="164.4" style="fill: none;stroke: #666;stroke-miterlimit: 10"/>
      <line x1="171.91" y1="170.4" x2="181.91" y2="170.4" style="fill: none;stroke: #666;stroke-miterlimit: 10"/>
      <line x1="171.91" y1="176.4" x2="181.91" y2="176.4" style="fill: none;stroke: #666;stroke-miterlimit: 10"/>
      <line x1="171.91" y1="182.4" x2="181.91" y2="182.4" style="fill: none;stroke: #666;stroke-miterlimit: 10"/>
    </g>
  </g>
  <g>
    <path d="M55.91,212.9a5,5,0,0,1,5,5v44a5,5,0,0,1-5,5h-48a5,5,0,0,1-5-5v-44a5,5,0,0,1,5-5h48m0-3h-48a8,8,0,0,0-8,8v44a8,8,0,0,0,8,8h48a8,8,0,0,0,8-8v-44a8,8,0,0,0-8-8Z" style="fill: #666"/>
    <g>
      <line x1="12.91" y1="217.9" x2="12.91" y2="260.9" style="fill: none;stroke: #666;stroke-miterlimit: 10;stroke-width: 2px"/>
      <line x1="50.91" y1="217.9" x2="50.91" y2="260.9" style="fill: none;stroke: #666;stroke-miterlimit: 10;stroke-width: 2px"/>
      <line x1="7.91" y1="259.9" x2="55.91" y2="259.9" style="fill: none;stroke: #666;stroke-miterlimit: 10;stroke-width: 4px"/>
      <path d="M49.91,223.9v20h-36v-20h36m2-2h-40v24h40v-24Z" style="fill: #666"/>
      <path d="M29.61,235.9l-1.32,4h-1.4l4.08-12h1.87l4.09,12H35.48l-1.36-4Zm4.18-1-1.25-3.67c-.28-.83-.47-1.59-.66-2.33h0c-.19.76-.4,1.54-.64,2.31L30,234.9Z" style="fill: #fff;stroke: #666;stroke-miterlimit: 10"/>
    </g>
  </g>
  <g>
    <path d="M125.91,212.9a5,5,0,0,1,5,5v44a5,5,0,0,1-5,5h-48a5,5,0,0,1-5-5v-44a5,5,0,0,1,5-5h48m0-3h-48a8,8,0,0,0-8,8v44a8,8,0,0,0,8,8h48a8,8,0,0,0,8-8v-44a8,8,0,0,0-8-8Z" style="fill: #666"/>
    <g>
      <path d="M114.91,226.9v26h-26v-26h26m2-2h-30v30h30v-30Z" style="fill: #666"/>
      <line x1="101.91" y1="231.9" x2="101.91" y2="247.9" style="fill: none;stroke: #666;stroke-miterlimit: 10;stroke-width: 2px"/>
      <line x1="93.91" y1="239.9" x2="109.91" y2="239.9" style="fill: none;stroke: #666;stroke-miterlimit: 10;stroke-width: 2px"/>
    </g>
  </g>
  <g>
    <path d="M195.91,212.9a5,5,0,0,1,5,5v44a5,5,0,0,1-5,5h-48a5,5,0,0,1-5-5v-44a5,5,0,0,1,5-5h48m0-3h-48a8,8,0,0,0-8,8v44a8,8,0,0,0,8,8h48a8,8,0,0,0,8-8v-44a8,8,0,0,0-8-8Z" style="fill: #666"/>
    <g>
      <line x1="149.91" y1="247.9" x2="193.91" y2="247.9" style="fill: none;stroke: #666;stroke-miterlimit: 10;stroke-width: 8px"/>
      <line x1="151.41" y1="249.9" x2="151.41" y2="259.9" style="fill: none;stroke: #666;stroke-miterlimit: 10;stroke-width: 3px"/>
      <line x1="192.41" y1="249.9" x2="192.41" y2="259.9" style="fill: none;stroke: #666;stroke-miterlimit: 10;stroke-width: 3px"/>
      <line x1="159.41" y1="236.9" x2="159.41" y2="244.9" style="fill: none;stroke: #666;stroke-miterlimit: 10;stroke-width: 3px"/>
      <line x1="184.41" y1="236.9" x2="184.41" y2="244.9" style="fill: none;stroke: #666;stroke-miterlimit: 10;stroke-width: 3px"/>
      <path d="M190.91,222.9v12h-38v-12h38m3-3h-44v18h44v-18Z" style="fill: #666"/>
      <g>
        <rect x="150.41" y="220.41" width="7" height="17" style="fill: #666"/>
        <path d="M156.91,220.9v16h-6v-16h6m1-1h-8v18h8v-18Z" style="fill: #666"/>
      </g>
      <g>
        <rect x="186.41" y="220.41" width="7" height="17" style="fill: #666"/>
        <path d="M192.91,220.9v16h-6v-16h6m1-1h-8v18h8v-18Z" style="fill: #666"/>
      </g>
      <line x1="161.91" y1="227.4" x2="170.91" y2="227.4" style="fill: none;stroke: #666;stroke-miterlimit: 10"/>
      <line x1="161.91" y1="230.4" x2="170.91" y2="230.4" style="fill: none;stroke: #666;stroke-miterlimit: 10"/>
      <line x1="172.91" y1="227.4" x2="181.91" y2="227.4" style="fill: none;stroke: #666;stroke-miterlimit: 10"/>
      <line x1="172.91" y1="230.4" x2="181.91" y2="230.4" style="fill: none;stroke: #666;stroke-miterlimit: 10"/>
    </g>
  </g>
  <g>
    <path d="M55.91,282.9a5,5,0,0,1,5,5v44a5,5,0,0,1-5,5h-48a5,5,0,0,1-5-5v-44a5,5,0,0,1,5-5h48m0-3h-48a8,8,0,0,0-8,8v44a8,8,0,0,0,8,8h48a8,8,0,0,0,8-8v-44a8,8,0,0,0-8-8Z" style="fill: #666"/>
    <g>
      <path d="M49,291.9l4.69,9.5L49,310.9H21.91v-19H49m1.24-2H19.91v23H50.23l5.68-11.5-5.68-11.5Z" style="fill: #666"/>
      <line x1="13.91" y1="287.9" x2="13.91" y2="330.9" style="fill: none;stroke: #666;stroke-miterlimit: 10;stroke-width: 4px"/>
      <line x1="9.91" y1="330.9" x2="17.91" y2="330.9" style="fill: none;stroke: #666;stroke-miterlimit: 10;stroke-width: 2px"/>
      <line x1="12.91" y1="295.9" x2="20.91" y2="295.9" style="fill: none;stroke: #666;stroke-miterlimit: 10;stroke-width: 2px"/>
      <line x1="12.91" y1="306.9" x2="20.91" y2="306.9" style="fill: none;stroke: #666;stroke-miterlimit: 10;stroke-width: 2px"/>
      <line x1="26.91" y1="297.4" x2="45.91" y2="297.4" style="fill: none;stroke: #666;stroke-miterlimit: 10"/>
      <line x1="26.91" y1="301.4" x2="45.91" y2="301.4" style="fill: none;stroke: #666;stroke-miterlimit: 10"/>
      <line x1="26.91" y1="305.4" x2="45.91" y2="305.4" style="fill: none;stroke: #666;stroke-miterlimit: 10"/>
    </g>
  </g>
  <g>
    <path d="M125.91,282.9a5,5,0,0,1,5,5v44a5,5,0,0,1-5,5h-48a5,5,0,0,1-5-5v-44a5,5,0,0,1,5-5h48m0-3h-48a8,8,0,0,0-8,8v44a8,8,0,0,0,8,8h48a8,8,0,0,0,8-8v-44a8,8,0,0,0-8-8Z" style="fill: #666"/>
    <g>
      <line x1="82.91" y1="287.9" x2="82.91" y2="330.9" style="fill: none;stroke: #666;stroke-miterlimit: 10;stroke-width: 2px"/>
      <line x1="120.91" y1="287.9" x2="120.91" y2="330.9" style="fill: none;stroke: #666;stroke-miterlimit: 10;stroke-width: 2px"/>
      <line x1="77.91" y1="329.9" x2="125.91" y2="329.9" style="fill: none;stroke: #666;stroke-miterlimit: 10;stroke-width: 4px"/>
      <path d="M119.91,293.9v20h-36v-20h36m2-2h-40v24h40v-24Z" style="fill: #666"/>
      <line x1="92.91" y1="301.4" x2="111.91" y2="301.4" style="fill: none;stroke: #666;stroke-miterlimit: 10"/>
      <line x1="92.91" y1="306.4" x2="111.91" y2="306.4" style="fill: none;stroke: #666;stroke-miterlimit: 10"/>
    </g>
  </g>
  <g>
    <path d="M125.91,352.9a5,5,0,0,1,5,5v44a5,5,0,0,1-5,5h-48a5,5,0,0,1-5-5v-44a5,5,0,0,1,5-5h48m0-3h-48a8,8,0,0,0-8,8v44a8,8,0,0,0,8,8h48a8,8,0,0,0,8-8v-44a8,8,0,0,0-8-8Z" style="fill: #666"/>
    <g>
      <line x1="85.91" y1="398.9" x2="117.91" y2="398.9" style="fill: none;stroke: #666;stroke-miterlimit: 10;stroke-width: 2px"/>
      <line x1="91.91" y1="360.9" x2="111.91" y2="360.9" style="fill: none;stroke: #666;stroke-miterlimit: 10;stroke-width: 2px"/>
      <line x1="99.91" y1="360.4" x2="103.91" y2="360.4" style="fill: none;stroke: #666;stroke-miterlimit: 10;stroke-width: 3px"/>
      <line x1="92.91" y1="393.9" x2="110.91" y2="393.9" style="fill: none;stroke: #666;stroke-miterlimit: 10;stroke-width: 6px"/>
      <path d="M109.91,363.9v24h-16v-24h16m1-1h-18v26h18v-26Z" style="fill: #666"/>
      <path d="M99.61,377.9l-1.32,4h-1.4l4.08-12h1.87l4.09,12h-1.45l-1.36-4Zm4.18-1-1.25-3.67c-.28-.83-.47-1.59-.66-2.33h0c-.19.76-.4,1.54-.64,2.31L100,376.9Z" style="fill: #666;stroke: #666;stroke-miterlimit: 10"/>
    </g>
  </g>
  <g>
    <path d="M55.91,352.9a5,5,0,0,1,5,5v44a5,5,0,0,1-5,5h-48a5,5,0,0,1-5-5v-44a5,5,0,0,1,5-5h48m0-3h-48a8,8,0,0,0-8,8v44a8,8,0,0,0,8,8h48a8,8,0,0,0,8-8v-44a8,8,0,0,0-8-8Z" style="fill: #666"/>
    <g>
      <line x1="15.91" y1="398.9" x2="47.91" y2="398.9" style="fill: none;stroke: #666;stroke-miterlimit: 10;stroke-width: 2px"/>
      <line x1="21.91" y1="360.9" x2="41.91" y2="360.9" style="fill: none;stroke: #666;stroke-miterlimit: 10;stroke-width: 2px"/>
      <line x1="29.91" y1="360.4" x2="33.91" y2="360.4" style="fill: none;stroke: #666;stroke-miterlimit: 10;stroke-width: 3px"/>
      <line x1="22.91" y1="393.9" x2="40.91" y2="393.9" style="fill: none;stroke: #666;stroke-miterlimit: 10;stroke-width: 6px"/>
      <path d="M39.91,363.9v24h-16v-24h16m1-1h-18v26h18v-26Z" style="fill: #666"/>
    </g>
  </g>
  <g>
    <path d="M195.91,352.9a5,5,0,0,1,5,5v44a5,5,0,0,1-5,5h-48a5,5,0,0,1-5-5v-44a5,5,0,0,1,5-5h48m0-3h-48a8,8,0,0,0-8,8v44a8,8,0,0,0,8,8h48a8,8,0,0,0,8-8v-44a8,8,0,0,0-8-8Z" style="fill: #666"/>
    <g>
      <line x1="159.91" y1="398.4" x2="183.91" y2="398.4" style="fill: #666;stroke: #666;stroke-miterlimit: 10;stroke-width: 3px"/>
      <line x1="164.91" y1="368.9" x2="178.91" y2="368.9" style="fill: #666;stroke: #666;stroke-miterlimit: 10;stroke-width: 4px"/>
      <g>
        <rect x="167.41" y="372.41" width="9" height="23" style="fill: #666"/>
        <path d="M175.91,372.9v22h-8v-22h8m1-1h-10v24h10v-24Z" style="fill: #666"/>
      </g>
      <g>
        <rect x="167.41" y="362.41" width="9" height="3" style="fill: #666"/>
        <path d="M175.91,362.9v2h-8v-2h8m1-1h-10v4h10v-4Z" style="fill: #666"/>
      </g>
      <g>
        <rect x="171.41" y="360.41" width="1" height="3" style="fill: #666"/>
        <path d="M171.91,360.9v0m1-1h-2v4h2v-4Z" style="fill: #666"/>
      </g>
    </g>
  </g>
</svg>
